HIERARCHY
ROOT pelvis
{
	OFFSET 0.003123 -0.351407 0.012037
	CHANNELS 6 Xposition Yposition Zposition Zrotation Yrotation Xrotation 
	JOINT left_hip
	{
		OFFSET 0.058189 -0.092763 -0.026001
		CHANNELS 3 Zrotation Yrotation Xrotation
		JOINT left_knee
		{
			OFFSET 0.054695 -0.378753 -0.009396
			CHANNELS 3 Zrotation Yrotation Xrotation
			JOINT left_ankle
			{
				OFFSET -0.043453 -0.403059 -0.031876
				CHANNELS 3 Zrotation Yrotation Xrotation
				JOINT left_foot
				{
					OFFSET 0.047257 -0.057997 0.118216
					CHANNELS 3 Zrotation Yrotation Xrotation
					End Site
					{
						OFFSET 0.000000 0.000000 0.000000
					}
				}
			}
		}
	}
	JOINT right_hip
	{
		OFFSET -0.063267 -0.103908 -0.021250
		CHANNELS 3 Zrotation Yrotation Xrotation
		JOINT right_knee
		{
			OFFSET -0.044210 -0.362380 -0.016824
			CHANNELS 3 Zrotation Yrotation Xrotation
			JOINT right_ankle
			{
				OFFSET 0.015417 -0.410728 -0.020192
				CHANNELS 3 Zrotation Yrotation Xrotation
				JOINT right_foot
				{
					OFFSET -0.038812 -0.058328 0.119049
					CHANNELS 3 Zrotation Yrotation Xrotation
					End Site
					{
						OFFSET 0.000000 0.000000 0.000000
					}
				}
			}
		}
	}
	JOINT spine_1
	{
		OFFSET -0.002763 0.109891 -0.027618
		CHANNELS 3 Zrotation Yrotation Xrotation
		JOINT spine_2
		{
			OFFSET 0.009448 0.131853 -0.005940
			CHANNELS 3 Zrotation Yrotation Xrotation
			JOINT spine_3
			{
				OFFSET -0.011330 0.052235 0.028447
				CHANNELS 3 Zrotation Yrotation Xrotation
				JOINT neck
				{
					OFFSET -0.012164 0.165167 -0.031615
					CHANNELS 3 Zrotation Yrotation Xrotation
					JOINT head
					{
						OFFSET 0.024783 0.160452 0.020737
						CHANNELS 3 Zrotation Yrotation Xrotation
						End Site
						{
							OFFSET 0.000000 0.000000 0.000000
						}
					}
				}
				JOINT left_collar
				{
					OFFSET 0.046364 0.084944 -0.007220
					CHANNELS 3 Zrotation Yrotation Xrotation
					JOINT left_shoulder
					{
						OFFSET 0.119239 0.057728 -0.015461
						CHANNELS 3 Zrotation Yrotation Xrotation
						JOINT left_elbow
						{
							OFFSET 0.254123 -0.072151 -0.042459
							CHANNELS 3 Zrotation Yrotation Xrotation
							JOINT left_wrist
							{
								OFFSET 0.251987 0.023221 -0.002472
								CHANNELS 3 Zrotation Yrotation Xrotation
								JOINT left_index_1
								{
									OFFSET 0.101902 -0.008688 0.019351
									CHANNELS 3 Zrotation Yrotation Xrotation
									JOINT left_index_2
									{
										OFFSET 0.030149 -0.011154 0.001151
										CHANNELS 3 Zrotation Yrotation Xrotation
										JOINT left_index_3
										{
											OFFSET 0.006504 -0.021577 -0.002433
											CHANNELS 3 Zrotation Yrotation Xrotation
											End Site
											{
												OFFSET 0.000000 0.000000 0.000000
											}
										}
									}
								}
								JOINT left_middle_1
								{
									OFFSET 0.109398 -0.006328 -0.003981
									CHANNELS 3 Zrotation Yrotation Xrotation
									JOINT left_middle_2
									{
										OFFSET 0.026472 -0.015218 -0.004641
										CHANNELS 3 Zrotation Yrotation Xrotation
										JOINT left_middle_3
										{
											OFFSET 0.005022 -0.023347 -0.001911
											CHANNELS 3 Zrotation Yrotation Xrotation
											End Site
											{
												OFFSET 0.000000 0.000000 0.000000
											}
										}
									}
								}
								JOINT left_pinky_1
								{
									OFFSET 0.084047 -0.014539 -0.043750
									CHANNELS 3 Zrotation Yrotation Xrotation
									JOINT left_pinky_2
									{
										OFFSET 0.012124 -0.014448 -0.005375
										CHANNELS 3 Zrotation Yrotation Xrotation
										JOINT left_pinky_3
										{
											OFFSET 0.003798 -0.018853 0.000167
											CHANNELS 3 Zrotation Yrotation Xrotation
											End Site
											{
												OFFSET 0.000000 0.000000 0.000000
											}
										}
									}
								}
								JOINT left_ring_1
								{
									OFFSET 0.097444 -0.009268 -0.027345
									CHANNELS 3 Zrotation Yrotation Xrotation
									JOINT left_ring_2
									{
										OFFSET 0.023561 -0.016057 -0.001895
										CHANNELS 3 Zrotation Yrotation Xrotation
										JOINT left_ring_3
										{
											OFFSET 0.004257 -0.023548 0.000814
											CHANNELS 3 Zrotation Yrotation Xrotation
											End Site
											{
												OFFSET 0.000000 0.000000 0.000000
											}
										}
									}
								}
								JOINT left_thumb_1
								{
									OFFSET 0.040636 -0.017977 0.025611
									CHANNELS 3 Zrotation Yrotation Xrotation
									JOINT left_thumb_2
									{
										OFFSET 0.021637 -0.017639 0.011623
										CHANNELS 3 Zrotation Yrotation Xrotation
										JOINT left_thumb_3
										{
											OFFSET 0.024002 -0.008356 0.006548
											CHANNELS 3 Zrotation Yrotation Xrotation
											End Site
											{
												OFFSET 0.000000 0.000000 0.000000
											}
										}
									}
								}
							}
						}
					}
				}
				JOINT right_collar
				{
					OFFSET -0.047695 0.084339 -0.013400
					CHANNELS 3 Zrotation Yrotation Xrotation
					JOINT right_shoulder
					{
						OFFSET -0.102578 0.053524 -0.012669
						CHANNELS 3 Zrotation Yrotation Xrotation
						JOINT right_elbow
						{
							OFFSET -0.271150 -0.036492 -0.026467
							CHANNELS 3 Zrotation Yrotation Xrotation
							JOINT right_wrist
							{
								OFFSET -0.249267 -0.004533 -0.015325
								CHANNELS 3 Zrotation Yrotation Xrotation
								JOINT right_index_1
								{
									OFFSET -0.099881 -0.011783 0.019600
									CHANNELS 3 Zrotation Yrotation Xrotation
									JOINT right_index_2
									{
										OFFSET -0.030148 -0.011154 0.001151
										CHANNELS 3 Zrotation Yrotation Xrotation
										JOINT right_index_3
										{
											OFFSET -0.006505 -0.021577 -0.002432
											CHANNELS 3 Zrotation Yrotation Xrotation
											End Site
											{
												OFFSET 0.000000 0.000000 0.000000
											}
										}
									}
								}
								JOINT right_middle_1
								{
									OFFSET -0.107376 -0.009422 -0.003734
									CHANNELS 3 Zrotation Yrotation Xrotation
									JOINT right_middle_2
									{
										OFFSET -0.026472 -0.015218 -0.004641
										CHANNELS 3 Zrotation Yrotation Xrotation
										JOINT right_middle_3
										{
											OFFSET -0.005022 -0.023347 -0.001911
											CHANNELS 3 Zrotation Yrotation Xrotation
											End Site
											{
												OFFSET 0.000000 0.000000 0.000000
											}
										}
									}
								}
								JOINT right_pinky_1
								{
									OFFSET -0.082027 -0.017634 -0.043503
									CHANNELS 3 Zrotation Yrotation Xrotation
									JOINT right_pinky_2
									{
										OFFSET -0.012123 -0.014448 -0.005374
										CHANNELS 3 Zrotation Yrotation Xrotation
										JOINT right_pinky_3
										{
											OFFSET -0.003798 -0.018852 0.000167
											CHANNELS 3 Zrotation Yrotation Xrotation
											End Site
											{
												OFFSET 0.000000 0.000000 0.000000
											}
										}
									}
								}
								JOINT right_ring_1
								{
									OFFSET -0.095423 -0.012362 -0.027099
									CHANNELS 3 Zrotation Yrotation Xrotation
									JOINT right_ring_2
									{
										OFFSET -0.023561 -0.016057 -0.001895
										CHANNELS 3 Zrotation Yrotation Xrotation
										JOINT right_ring_3
										{
											OFFSET -0.004257 -0.023548 0.000816
											CHANNELS 3 Zrotation Yrotation Xrotation
											End Site
											{
												OFFSET 0.000000 0.000000 0.000000
											}
										}
									}
								}
								JOINT right_thumb_1
								{
									OFFSET -0.038613 -0.021074 0.025861
									CHANNELS 3 Zrotation Yrotation Xrotation
									JOINT right_thumb_2
									{
										OFFSET -0.021636 -0.017639 0.011623
										CHANNELS 3 Zrotation Yrotation Xrotation
										JOINT right_thumb_3
										{
											OFFSET -0.024004 -0.008353 0.006547
											CHANNELS 3 Zrotation Yrotation Xrotation
											End Site
											{
												OFFSET 0.000000 0.000000 0.000000
											}
										}
									}
								}
							}
						}
					}
				}
			}
		}
	}
}
MOTION
Frames: 7
Frame Time: 0.050000
-1.395416 1.016529 0.560219 -1.045813 8.367909 -3.254011 -1.741237 0.887114 5.465924 0.602308 0.312132 -3.207665 -11.402547 0.049330 22.640102 0.000000 0.000000 0.000000 4.691613 -1.002573 5.064329 -1.513368 0.025941 -1.381335 8.759970 4.421828 18.854995 0.000000 0.000000 0.000000 4.283696 -0.664839 8.814204 -7.937678 -0.354600 -18.071510 6.703735 1.103523 17.798989 -3.602436 1.329888 -6.029652 0.000000 0.000000 0.000000 7.441276 -13.617138 6.717468 -85.275292 -17.678845 -8.340658 -14.245852 -9.704724 2.036415 0.695333 3.327138 15.999525 5.773748 2.647811 1.082725 -12.192556 0.064450 -4.952384 0.000000 0.000000 0.000000 1.143665 2.256776 1.486501 -1.115707 0.263125 0.138440 0.000000 0.000000 0.000000 5.592295 5.077071 6.730404 -7.066035 -0.386005 -7.298400 0.000000 0.000000 0.000000 1.023100 2.549135 1.574581 -1.537224 0.226334 1.386731 0.000000 0.000000 0.000000 -2.438850 -0.558346 0.354788 2.613948 -0.260151 -1.038760 0.000000 0.000000 0.000000 -6.649055 2.088679 1.192709 86.947289 3.691328 -4.040720 -1.389847 25.051482 -0.576153 5.823390 -2.569189 -5.586982 2.204171 2.509623 -0.742810 0.243209 -0.624793 2.726779 0.000000 0.000000 0.000000 -2.240383 -2.584393 2.162024 5.346367 1.379786 -4.495188 0.000000 0.000000 0.000000 -0.319574 -5.567996 8.586271 -0.148992 5.349406 -14.997912 0.000000 0.000000 0.000000 -9.653547 -3.669901 4.474791 18.307637 5.265511 -7.534619 0.000000 0.000000 0.000000 2.798042 5.704608 -2.295834 -7.462376 -4.112844 0.209841 0.000000 0.000000 0.000000 
-1.395416 1.013306 0.549660 -1.063437 8.469791 -2.643893 -1.765355 0.748915 4.508592 0.725897 0.214707 -2.336515 -11.480606 -0.845487 21.593184 0.000000 0.000000 0.000000 4.843094 -1.049099 5.233185 -1.594390 -0.005206 -2.015819 7.686735 5.258037 14.789900 0.000000 0.000000 0.000000 4.493493 -0.715262 9.141710 -7.933074 -0.305710 -17.887144 6.238205 1.672877 15.048537 -3.026797 0.884109 -3.067532 0.000000 0.000000 0.000000 6.653586 -14.411692 7.078709 -82.773176 -16.259141 -9.058100 -16.004132 -7.938525 1.747690 4.687415 3.761602 15.400849 -9.678852 0.448343 0.312087 8.385029 0.316829 6.043846 0.000000 0.000000 0.000000 -0.152887 3.140612 1.624793 -3.555767 1.171256 3.118224 0.000000 0.000000 0.000000 13.813582 6.816321 12.015613 -20.123478 -2.134354 -9.453537 0.000000 0.000000 0.000000 2.846239 3.758272 2.324808 -9.949963 0.288268 -0.394431 0.000000 0.000000 0.000000 -12.379507 0.771636 5.028262 9.393219 -3.290846 -4.589743 0.000000 0.000000 0.000000 -5.760750 2.136763 1.203580 86.606395 1.835807 -5.093700 0.892717 25.586477 -0.240877 -0.449697 -3.824204 -1.410361 3.746004 2.566470 -0.670922 7.589290 -0.392886 -0.814929 0.000000 0.000000 0.000000 2.407021 -3.130087 1.302030 8.286003 1.792943 -7.584452 0.000000 0.000000 0.000000 16.681595 -1.293832 -4.797225 -23.834270 -0.065061 3.089875 0.000000 0.000000 0.000000 11.034080 -1.872267 0.300208 -9.801540 0.545944 -8.574175 0.000000 0.000000 0.000000 8.856151 11.713322 -2.713928 -9.342437 -10.652090 2.608978 0.000000 0.000000 0.000000 
-1.395416 1.010727 0.547020 -2.405683 6.676286 -2.261637 -0.323997 0.629794 4.398167 0.517871 0.261340 -2.696246 -10.514518 -0.644684 20.592623 0.000000 0.000000 0.000000 6.362596 -1.101455 4.730405 -1.859411 0.021448 -1.668326 8.089989 6.794809 12.995488 0.000000 0.000000 0.000000 4.319885 -0.733788 9.058752 -7.435889 -0.555490 -17.727913 9.084754 2.422298 13.676311 -3.931403 0.835418 -1.832897 0.000000 0.000000 0.000000 5.344857 -14.270768 6.982575 -84.304712 -14.574380 -9.576739 -13.454244 -8.619135 1.724540 -1.758591 3.902861 16.749284 0.437370 -1.240215 -0.635552 9.946474 -0.140663 4.878379 0.000000 0.000000 0.000000 8.813217 1.331676 2.439684 -2.175385 0.752685 0.972652 0.000000 0.000000 0.000000 17.780475 -0.775801 8.643572 -12.999107 -0.606117 -6.334050 0.000000 0.000000 0.000000 9.936954 1.952384 2.313427 -6.524846 0.168734 -1.900812 0.000000 0.000000 0.000000 -4.106923 0.966850 2.487067 -0.225790 -3.430032 -0.972627 0.000000 0.000000 0.000000 -8.130728 4.313603 2.265747 88.050203 1.843640 -5.394447 -2.256709 25.151957 -0.764148 4.421119 -2.006838 -3.341517 -10.441187 0.483922 -0.422505 16.181202 -0.794129 -0.983633 0.000000 0.000000 0.000000 3.080402 -1.647772 0.388806 -8.524992 0.307653 0.930713 0.000000 0.000000 0.000000 6.167955 -3.761951 2.160085 -7.624593 1.741716 -7.517888 0.000000 0.000000 0.000000 -2.660324 -3.057518 2.678711 7.947188 3.185942 -8.055147 0.000000 0.000000 0.000000 -0.118302 7.329597 -5.536413 -1.681324 -7.451917 2.492695 0.000000 0.000000 0.000000 
-1.395416 1.010727 0.548340 -0.935211 8.528362 -2.030675 -1.886133 0.689297 4.037783 0.757512 0.195990 -2.173800 -11.288726 -1.894186 19.929885 0.000000 0.000000 0.000000 4.737350 -0.947054 4.681320 -1.600685 -0.006587 -2.043313 7.378764 5.393785 13.783206 0.000000 0.000000 0.000000 1.721022 -0.657321 9.480170 -6.166018 -0.846496 -17.470593 8.650383 1.090487 13.371837 -3.856810 0.917955 -2.598366 0.000000 0.000000 0.000000 5.651007 -14.358630 7.013343 -84.421848 -14.232304 -9.732895 -15.503755 -10.302850 2.278730 -0.119868 2.777235 16.116171 0.204627 -1.685297 -0.802824 7.360741 0.692908 5.890047 0.000000 0.000000 0.000000 -2.598435 -1.364945 -1.212847 9.546038 -0.838503 4.545093 0.000000 0.000000 0.000000 3.245416 -2.016230 -0.169472 7.848867 -0.140246 10.343427 0.000000 0.000000 0.000000 9.811349 2.418607 2.515707 -9.249963 -0.152724 -4.090163 0.000000 0.000000 0.000000 -4.823173 -0.943373 1.006215 0.136056 -2.407127 -0.804421 0.000000 0.000000 0.000000 -8.438440 4.055531 2.159226 86.440208 1.754927 -5.362557 2.148705 25.621437 -0.051383 -0.743649 -3.571859 -2.216930 3.904510 1.035217 -0.180208 5.943603 0.154633 -2.117481 0.000000 0.000000 0.000000 3.406581 -3.843123 1.474003 4.559620 1.680083 -7.377045 0.000000 0.000000 0.000000 4.991322 -6.342332 5.776362 -1.672544 4.156850 -15.448632 0.000000 0.000000 0.000000 10.422936 -0.617331 -0.353516 -7.142411 0.325611 -4.821902 0.000000 0.000000 0.000000 9.137790 10.100830 -1.386634 -10.622252 -7.532344 0.991903 0.000000 0.000000 0.000000 
-1.402954 1.010727 0.548340 -0.400233 4.715477 -1.756195 -2.025118 0.720633 4.147261 0.183885 0.301790 -2.927294 -9.530361 0.232005 20.398780 0.000000 0.000000 0.000000 4.665811 -0.768006 3.562129 -2.209060 0.077793 -0.874836 9.034012 7.697786 13.539931 0.000000 0.000000 0.000000 1.283748 -0.638866 9.020839 -7.399983 -0.686728 -17.803136 8.546865 2.694588 14.431912 -3.385683 0.956366 -3.348167 0.000000 0.000000 0.000000 6.357585 -11.980974 5.995132 -82.828242 -12.162997 -10.346112 -16.829934 -11.601935 2.721849 -2.230943 3.485671 12.819393 5.033559 -0.304730 -0.375994 -4.777371 1.122990 0.268691 0.000000 0.000000 0.000000 4.833201 0.880477 1.442516 -0.460278 0.569539 1.733295 0.000000 0.000000 0.000000 14.305609 0.450955 8.339236 -13.433599 -1.261481 -6.967333 0.000000 0.000000 0.000000 6.368023 1.682295 1.824583 -1.723840 0.419998 2.224849 0.000000 0.000000 0.000000 -5.655820 -0.890558 1.628044 2.236507 -0.839359 -0.998207 0.000000 0.000000 0.000000 -6.068074 5.935735 3.069496 86.784076 3.891010 -4.465651 0.351765 24.448008 -0.324362 -1.509524 -2.970858 -0.583912 5.782345 3.185446 -0.717671 4.679028 -0.582661 0.435297 0.000000 0.000000 0.000000 7.081229 -2.041508 -0.215272 0.462440 0.891215 -4.357804 0.000000 0.000000 0.000000 13.611905 -6.307917 1.209528 -9.690075 1.844529 -11.988537 0.000000 0.000000 0.000000 2.998352 -3.363115 2.009885 8.205883 3.440621 -10.845026 0.000000 0.000000 0.000000 8.425440 13.536074 -4.245602 -9.739339 -12.765428 3.470527 0.000000 0.000000 0.000000 
-1.402954 1.010727 0.553619 -0.397661 3.844529 -2.071284 -2.135527 0.794100 4.570650 1.186921 0.336003 -3.607155 -9.700570 0.122988 20.812419 0.000000 0.000000 0.000000 4.538078 -0.736103 3.418254 -2.165955 0.088869 -0.593932 9.965073 7.742802 15.426027 0.000000 0.000000 0.000000 1.370739 -0.692503 9.547178 -7.730144 -0.648379 -17.937855 8.932059 3.208431 14.709298 -3.322027 0.993211 -3.688052 0.000000 0.000000 0.000000 6.916464 -11.778007 5.919260 -83.247573 -11.858997 -10.516537 -18.983432 -11.736274 2.980577 4.962308 2.903432 11.181465 -16.685225 -2.048098 -0.193559 19.863735 -1.996235 5.419895 0.000000 0.000000 0.000000 -14.385358 -0.163413 -2.691731 16.226938 -1.525751 7.657200 0.000000 0.000000 0.000000 -3.994414 3.333420 0.673949 3.852932 0.216805 2.049980 0.000000 0.000000 0.000000 -11.399132 0.885721 -0.777986 14.149399 -0.078551 5.046204 0.000000 0.000000 0.000000 -12.116769 -2.157610 3.318116 7.143200 -0.331216 -2.459780 0.000000 0.000000 0.000000 -6.251636 5.432868 2.833886 86.833587 3.857984 -4.530946 0.621980 24.937805 -0.278851 0.608064 -3.324729 -2.389920 -1.371683 1.714151 -0.646366 13.963144 -1.708777 1.483083 0.000000 0.000000 0.000000 -1.363244 -5.699190 3.721150 11.318595 2.965004 -10.429000 0.000000 0.000000 0.000000 0.935817 -8.571636 11.158382 3.609443 7.709658 -23.035898 0.000000 0.000000 0.000000 7.628964 -2.102460 0.781021 -3.298888 1.126572 -6.619013 0.000000 0.000000 0.000000 7.099807 10.189594 -2.701577 -9.440044 -9.387597 2.140226 0.000000 0.000000 0.000000 
-1.395416 1.010727 0.554939 -0.931890 6.855401 -2.280345 -2.205844 0.672538 3.792974 1.869549 0.174115 -2.418393 -10.450267 -1.559705 19.221873 0.000000 0.000000 0.000000 4.463672 -0.833696 4.118736 -1.474049 0.020872 -1.363373 8.781138 5.873408 16.142226 0.000000 0.000000 0.000000 4.599933 -0.786381 9.576237 -8.644156 -0.459038 -19.051512 6.827075 0.722482 16.462751 -3.428699 1.126101 -4.597991 0.000000 0.000000 0.000000 6.816782 -12.088751 6.024731 -81.371526 -12.760659 -9.947593 -22.505453 -11.716124 3.350084 1.309669 3.186989 12.624134 5.118346 -0.153176 -0.297957 -6.876912 0.379903 -2.065770 0.000000 0.000000 0.000000 4.156277 1.638418 1.722820 -3.881016 0.710655 0.504875 0.000000 0.000000 0.000000 11.863224 2.579717 8.561269 -12.660690 -1.743536 -10.524002 0.000000 0.000000 0.000000 5.844056 2.278501 2.035259 -7.661869 -0.410513 -3.599548 0.000000 0.000000 0.000000 -7.358223 -2.288405 1.150648 5.264562 -0.903756 -2.043791 0.000000 0.000000 0.000000 -6.529916 4.333304 2.319283 86.791170 4.155677 -4.421412 0.908292 24.631468 -0.217329 2.862415 -3.191071 -1.895881 -11.773867 0.150641 -0.315704 23.101513 -0.842495 -2.177419 0.000000 0.000000 0.000000 3.593591 -2.302873 0.641828 -0.618484 1.523730 -6.327111 0.000000 0.000000 0.000000 8.913458 -3.459839 0.476650 -8.771889 1.000707 -4.746365 0.000000 0.000000 0.000000 -2.204809 -1.489427 1.350262 9.525334 1.988979 -4.140153 0.000000 0.000000 0.000000 1.800528 9.931029 -6.115160 -6.612434 -10.209901 2.883320 0.000000 0.000000 0.000000 
